# xmcd CD database file
#
# Track frame offsets:
#	150
#	9567
#	21640
#	36282
#	52087
#	57747
#	63405
#	72852
#	82002
#	94735
#	101822
#	106425
#	115415
#	126785
#	132985
#	145245
#	156547
#	165512
#	178895
#	189992
#	203400
#	211755
#	222832
#	233937
#	244425
#	256740
#
# Disc length: 3579 seconds
#
# Revision: 2
# Processed by: cddbd v1.5.1PL2 Copyright (c) Steve Scherf et al.
# Submitted via: CDex 1.60beta1-cs1
#
DISCID=8c0df91a
DTITLE=Various Artist - 懐かしのアニメ・ソング大全[2]1967～1968
DYEAR=1994
DGENRE=Compilation
TTITLE0=マッハ・ゴー・ゴー・ゴー <マッハGO GO GO>
TTITLE1=ぼくらのパーマン <パーマン>
TTITLE2=冒険ガボテン島 <冒険ガボテン島>
TTITLE3=いつもコンビで <冒険ガボテン島>
TTITLE4=キングコング <キングコング>
TTITLE5=00 1/7親指トム <00 1/7親指トム>
TTITLE6=ドンキッコ <ドンキッコ>
TTITLE7=ドンキッコ・ソング <ドンキッコ>
TTITLE8=シャダーのうた <冒険少年シャダー>
TTITLE9=ヤダモン <ちびっこ怪獣ヤダモン>
TTITLE10=オーノーヤダモン <ちびっこ怪獣ヤダモン>
TTITLE11=スカイヤーズ5 <スカイヤーズ5>
TTITLE12=スカイヤーズ・マーチ <スカイヤーズ5>
TTITLE13=おらあグズラだど <おらあグズラだど>
TTITLE14=ゲゲゲの鬼太郎 <ゲゲゲの鬼太郎>
TTITLE15=カランコロンの歌 <ゲゲゲの鬼太郎>
TTITLE16=わんぱく探偵団のうた <わんぱく探偵団>
TTITLE17=ゆけゆけ飛雄馬 <巨人の星>
TTITLE18=アニマル1の歌 <アニマル1>
TTITLE19=ナナコの歌 <アニマル1>
TTITLE20=サイボーグ009の歌 <サイボーグ009>
TTITLE21=戦いおわって <サイボーグ009>
TTITLE22=あかねちゃん <あかねちゃん>
TTITLE23=ヒデバロ・ソング <あかねちゃん>
TTITLE24=ファイトだ！！ピュー太 <ファイトだ！！ピュー太>
TTITLE25=おれは怪物くんだ <怪物くん>
EXTD=YEAR: 1994
EXTT0=
EXTT1=
EXTT2=
EXTT3=
EXTT4=
EXTT5=
EXTT6=
EXTT7=
EXTT8=
EXTT9=
EXTT10=
EXTT11=
EXTT12=
EXTT13=
EXTT14=
EXTT15=
EXTT16=
EXTT17=
EXTT18=
EXTT19=
EXTT20=
EXTT21=
EXTT22=
EXTT23=
EXTT24=
EXTT25=
PLAYORDER=
